<svg width="118" height="133" viewBox="0 0 118 133" fill="none" xmlns="http://www.w3.org/2000/svg"><path d="M57.093 25.973c-2.04-1.044-4.707-.15-5.736 1.871-.37.726.593 1.601 1.187.919.905-1.04 2.325-1.664 3.68-1.16 1.501.558 2.013 2.26 1.535 3.689-.331.99 1.205 1.397 1.55.429.76-2.129-.176-4.705-2.215-5.748zm22.94 7.817c-2.532-.707-5.538 1.144-5.524 3.9.003.44.63.638.85.231.747-1.398 2.227-2.654 3.925-2.31 1.837.372 2.457 2.333 2.147 3.969-.169.899 1.119 1.608 1.576.668 1.2-2.47-.344-5.722-2.974-6.458zm-15.366 2.645c-.513-.045.325-.009-.256-.055a1.283 1.283 0 00-.463.022c-.294.076-.578.253-.81.444a2.73 2.73 0 00-.935 1.563c-.269 1.248.111 2.686 1.306 3.295.38.194.727.118 1.046-.135.861-.681-.532-1.49-.61-2.205-.043-.387.066-.797.241-1.14.152-.3.427-.473.61-.722l.14-.072c.53-.24.198-.954-.27-.995zm2.768 7.655c-3.788-.44-7.056-1.348-10.248-3.54-.417-.286-.909.36-.539.703 2.877 2.663 6.802 4.456 10.787 4.236.915-.051.878-1.297 0-1.4z" fill="#8DD9E5"/><path d="M113.256 42.35c-1.847.74-3.423-.105-4.722-1.303.049-.114.113-.222.159-.336.238-.598-.219-1.042-.743-1.132-.216-1.615.012-3.18 1.801-4.112 2.022-1.055 4.766-.204 5.489 2.036.594 1.84-.111 4.097-1.984 4.846zm-37.453 6.14c-13.408 3.184-28.401-4.135-29.283-19.035-.273-4.597.804-8.77 2.793-12.458 4.704 1.308 9.462 1.419 14.22.704-1.114 1.284-2.295 2.296-3.935 3.441-.727.508-.704 1.745.258 1.986 6.676 1.67 13.107 1.58 19.435-.485a11.061 11.061 0 01-3.845 2.364c-1.061.385-1.064 1.787 0 2.172 6.068 2.2 12.228 2.382 18.343.378-.85 9.836-7.987 18.558-17.986 20.932zm4.008 10.776c-2.788-.582-5.586-1.133-8.41-1.497.002-1.823-.015-3.647-.065-5.474a29.624 29.624 0 004.452-.6 27.07 27.07 0 003.587-1.035c.251 2.908.66 5.664.436 8.607zM66.114 86.73c-6.192-.66-12.25-2.036-18.084-4.262-6.016-2.297-14.024-5.742-18.51-10.558-1.007-1.081-1.45-.724-1.056-2.15.209-.75 3.806-3.292 4.415-3.844a147.1 147.1 0 006.343-6.074c4.276-4.357 8.797-8.944 11.77-14.333 4.602 4.18 10.845 6.55 17.34 6.815a185.935 185.935 0 01-2.218 34.406zm-26.11-42.201c1.86-2.109 3.815-4.137 5.653-6.27a22.5 22.5 0 004.194 6.138 79.393 79.393 0 00-3.97 3.77c-1.781-1.42-3.825-2.6-5.876-3.638zM64.498 3.143c.159.3.462.513.945.479C77.3 2.767 89.88 7.06 93.169 19.915c.42 1.648.646 3.3.697 4.935l-.26.064c-5.025 1.771-9.815 2.107-14.774.905 1.935-1.201 3.426-2.809 4.618-5.031.545-1.017-.522-1.947-1.491-1.496-6.163 2.855-12.759 3.711-19.316 2.297 1.697-1.389 3.105-2.975 4.38-4.898.54-.814-.35-1.828-1.223-1.597-5.412 1.431-10.351 1.478-15.804.732 3.316-5.44 8.633-9.75 14.502-12.683zM50.483 127.612c.448.004.891.069 1.326.193 1.302.183 1.543.739.722 1.671-.551 1.267-.706 1.121-1.9 1.086a14.46 14.46 0 01-2.548-.303c-1.193-.25-2.314-.674-3.391-1.214.078-.119.143-.256.185-.421 1.243-.395 2.46-.808 3.784-.954a10.557 10.557 0 011.822-.058zM7.03 112.723c-1.059-.416-3.59-1.527-4.001-2.694-.314-.895.709-.459 1.286-.256.764.268 1.466.631 2.15 1.06 1.16.724 2.04 1.652 2.974 2.589-.815-.192-1.624-.392-2.409-.699zM30.928 12.206c-1.485-.57-2.578-1.812-2.564-3.512.019-2.166 2.01-3.666 3.93-4.167 2.525-.659 5.27.2 4.763 3.31-.436 2.685-2.536 4.891-5.347 3.799-.478-.185-.765.175-.782.57zm86.513 23.944c-1.491-3.317-5.781-4.516-8.897-2.754-2.388 1.347-3.95 5.08-2.79 7.722-3.148 3.144-5.79 6.367-9.847 8.708-4.189 2.416-8.683 3.473-13.342 4.399-.072-1.585-.298-3.144-.782-4.576 10.705-5.117 17.21-16.913 14.871-29.146C94.316 8.267 80.786-2.287 68.258.431a.633.633 0 00-.483-.077C53.33 3.331 41.725 15.976 43.7 31.434a23.476 23.476 0 001.087 4.639l-.226.174c-.783.905-1.58 1.81-2.389 2.706a1.19 1.19 0 00-.259-.624c-6.275-7.764-8.856-14.797-9.2-24.686 3.165.984 6.053-2.414 6.614-5.813.504-3.05-.865-6.099-5.587-5.982-3.445.088-7.235 2.338-7.745 6.002-.398 2.855 1.449 6.248 4.43 6.533-1.266 9.17 2.768 19.77 9.98 25.458.236.187.482.255.714.26-1.316 1.396-2.693 2.73-4.188 3.905-.697.55-.39 1.697.27 2.098 2.224 1.35 4.64 2.741 7.128 3.656-4.045 4.226-7.873 8.71-12.155 12.685-3.355 3.113-10.318 6.523-5.504 11.02.389.363.799.707 1.201 1.058-3.508 3.763-6.57 7.934-9.622 12.072-1.686 2.284-7.131 7.418-6.992 10.371.109 2.32 3.475 4.258 5.16 5.42.696.481 1.413.918 2.142 1.33-1.64 1.42-3.056 3.123-4.509 4.72-1.04 1.143-2.394 2.295-3.44 3.567-2.36-2.709-8.784-7.415-10.43-3.466-.902 2.162 1.813 4.093 3.371 5.042 1.928 1.176 4.28 1.971 6.556 1.744.271.101.588.104.916-.08 2.038-1.14 3.566-3.551 5.06-5.323 1.43-1.695 2.921-3.444 3.99-5.401a29.787 29.787 0 007.835 2.57c.36.066.667-.017.917-.173a.646.646 0 00.606-.178c2.653-2.664 5.375-5.769 7.411-8.938.625-.976-.801-2.072-1.598-1.236-2.322 2.436-4.445 5.398-6.275 8.293a1.205 1.205 0 00-.398-.184c-3.28-.82-6.44-1.881-9.327-3.691-1.332-.837-4.077-2.108-4.45-3.5-.402-1.511.797-2.472 1.992-4.134 4.198-5.84 8.605-11.65 12.072-17.97 9.18 7.577 21.396 12.015 33.164 13.844-2.783 7.484-4.848 15.706-6.719 23.513-4.322.11-9.98-.048-13.745-2.567-1.983-1.329-.776-2.852-.136-4.97.721-2.381 1.437-4.753 1.944-7.188 1.631.07 3.254-.18 4.752-.832.879-.381.448-1.922-.494-1.827-5.896.593-10.47-.404-14.44-5.17-.603-.725-1.725.205-1.278.99 1.9 3.34 5.64 5.863 9.585 6.619-1.184 2.798-2.129 5.693-3.065 8.584-.574 1.769-1.442 3.606.159 5.035 1.704 1.521 4.798 2.356 7.017 2.903-1.376 4.404-2.33 9.081-3.205 13.611a1.36 1.36 0 00.032.659c-.609.47-.81 1.514.057 2.008 2.75 1.569 13.672 5.11 13.284-1.232-.297-4.815-6.479-4.509-10.375-2.94.895-3.852 1.723-7.787 2.216-11.682 2.517.464 5.093.619 7.636.372.417.392 1.124.469 1.402-.176 3.382-7.843 6.524-16.89 7.77-25.373.99.125 1.978.237 2.956.325.595.054 1.351-.503 1.453-1.108a191.058 191.058 0 002.557-29.103c3.019.923 6.107 1.618 9.183 2.311.6.136 1.435-.179 1.54-.877.258-1.71.463-3.585.483-5.464 8.928.504 20.465-4.805 25.086-12.879 1.454 1.97 4.802 2.53 6.909 1.653 3.122-1.298 4.178-5.327 2.855-8.267z" fill="#8DD9E5"/></svg>