<svg id="Layer_1" height="106" viewBox="0 0 512 512" width="106" xmlns="http://www.w3.org/2000/svg" xmlns:xlink="http://www.w3.org/1999/xlink" data-name="Layer 1"><linearGradient id="linear-gradient" gradientUnits="userSpaceOnUse" x1="259.184" x2="259.184" y1="476.813" y2="56.032"><stop offset=".322" stop-color="#a163f5"/><stop offset=".466" stop-color="#b074ee"/><stop offset=".752" stop-color="#d8a1dd"/><stop offset=".898" stop-color="#efbad3"/></linearGradient><linearGradient id="linear-gradient-2" x1="315.091" x2="315.091" xlink:href="#linear-gradient" y1="476.813" y2="56.032"/><linearGradient id="linear-gradient-3" x1="343.184" x2="343.184" xlink:href="#linear-gradient" y1="476.813" y2="56.032"/><linearGradient id="linear-gradient-5" x1="255.777" x2="255.777" xlink:href="#linear-gradient" y1="476.813" y2="56.032"/><linearGradient id="linear-gradient-8" x1="56" x2="56" xlink:href="#linear-gradient" y1="476.813" y2="56.032"/><linearGradient id="linear-gradient-10" x1="256" x2="256" xlink:href="#linear-gradient" y1="476.813" y2="56.032"/><path d="m275.021 155h-31.675a15 15 0 0 0 0 30h31.675a15 15 0 0 0 0-30zm-22.021 18h-9.654a3 3 0 0 1 0-6h9.654zm22.021 0h-10.021v-6h10.021a3 3 0 0 1 0 6z" fill="url(#linear-gradient)"/><path d="m315.091 190.635a16.216 16.216 0 1 0 16.215 16.215 16.234 16.234 0 0 0 -16.215-16.215zm0 20.431a4.216 4.216 0 1 1 4.215-4.216 4.22 4.22 0 0 1 -4.215 4.216z" fill="url(#linear-gradient-2)"/><path d="m343.184 162.541a16.216 16.216 0 1 0 16.216 16.216 16.234 16.234 0 0 0 -16.216-16.216zm0 20.432a4.216 4.216 0 1 1 4.216-4.216 4.22 4.22 0 0 1 -4.216 4.216z" fill="url(#linear-gradient-3)"/><path d="m343.184 198.12a8.731 8.731 0 1 0 8.73 8.73 8.74 8.74 0 0 0 -8.73-8.73zm0 12a3.27 3.27 0 1 1 3.27-3.27 3.274 3.274 0 0 1 -3.27 3.27z" fill="url(#linear-gradient-3)"/><g fill="url(#linear-gradient-5)"><path d="m238.182 92.1a6 6 0 0 0 8.471 8.5 12.921 12.921 0 0 1 18.248 0 6 6 0 0 0 8.472-8.5 24.921 24.921 0 0 0 -35.191 0z"/><path d="m282.53 88.958a6 6 0 0 0 4.241-10.245 43.869 43.869 0 0 0 -61.988 0 6 6 0 1 0 8.481 8.49 31.868 31.868 0 0 1 45.026 0 5.981 5.981 0 0 0 4.24 1.755z"/><path d="m219.875 73.812a50.8 50.8 0 0 1 71.8 0 6 6 0 1 0 8.483-8.488 62.8 62.8 0 0 0 -88.769 0 6 6 0 1 0 8.482 8.488z"/></g><path d="m56 380a6 6 0 0 0 6-6v-5a6 6 0 0 0 -12 0v5a6 6 0 0 0 6 6z" fill="url(#linear-gradient-8)"/><path d="m56 443a6 6 0 0 0 6-6v-44a6 6 0 0 0 -12 0v44a6 6 0 0 0 6 6z" fill="url(#linear-gradient-8)"/><path d="m479.42 160.753-50.643-25.782a64.805 64.805 0 0 0 -35.543-6.78l-.136.013-43.681 5.023a72.736 72.736 0 0 0 -13.217-1.227h-38.2a18.577 18.577 0 0 0 -18.174-17h-48.1a18.577 18.577 0 0 0 -18.174 17h-38.202a72.008 72.008 0 0 0 -12.257 1.061l-44.181-4.861-.118-.013a64.675 64.675 0 0 0 -35.515 6.78l-50.7 25.782a31.964 31.964 0 0 0 -17.579 28.515v51.715a32.325 32.325 0 0 0 6.382 19.026l6.35 8.692a53.086 53.086 0 0 1 10.268 31.392v13.911h-4.252a5.8 5.8 0 0 0 -5.748 6.007v139.042a5.748 5.748 0 0 0 5.748 5.951h92.236a5.973 5.973 0 0 0 6.016-5.951v-139.042a6.021 6.021 0 0 0 -6.016-6.007h-1.984v-6.219a30.669 30.669 0 0 1 17.455-27.057 22.44 22.44 0 0 0 7.755-6.049 73.2 73.2 0 0 0 86.284-26.363 24.164 24.164 0 0 1 19.664-10.312h1.427a24.153 24.153 0 0 1 19.622 10.245 73.511 73.511 0 0 0 59.939 31.088c.019 0 .04.019.059.021a72.473 72.473 0 0 0 26.315-4.909 22.42 22.42 0 0 0 7.936 6.284 30.628 30.628 0 0 1 17.544 27.052v6.219h-1.984a6.021 6.021 0 0 0 -6.016 6.007v139.042a5.973 5.973 0 0 0 6.016 5.951h92.236a5.748 5.748 0 0 0 5.748-5.951v-139.042a5.8 5.8 0 0 0 -5.748-6.007h-4.252v-13.911a53.026 53.026 0 0 1 10.213-31.389l6.472-8.692a32.26 32.26 0 0 0 6.315-19.029v-51.715a31.965 31.965 0 0 0 -17.58-28.511zm-247.691-33.753h48.1c3.035 0 5.567 3 6.119 5h-60.338c.552-2 3.084-5 6.119-5zm-111.729 326h-80v-103h80zm0-115h-80v-12h80zm16.451-68.138a42.628 42.628 0 0 0 -24.451 37.919v6.219h-62v-13.911a65.11 65.11 0 0 0 -12.564-38.527l-6.472-8.691a20.184 20.184 0 0 1 -3.964-11.892v-51.715a20.016 20.016 0 0 1 11.03-17.819l50.642-25.783a52.837 52.837 0 0 1 28.908-5.529l20.569 2.15a73.815 73.815 0 0 0 -25.737 101.534 5.995 5.995 0 0 0 .342 11.984 16.25 16.25 0 0 0 16.246-16.146v-28.223a6.7 6.7 0 1 1 13.405-.01l.038 49a10.474 10.474 0 0 1 -5.992 9.44zm11.649-72.434a18.5 18.5 0 0 0 -7.471-4.108 37.607 37.607 0 1 1 13.721 43.332l-.023-17.652h7.673v9.24c0 3.314 3.071 5.76 6.384 5.76h14.862a5.594 5.594 0 0 0 5.754-5.76v-9.24h9.085a5.6 5.6 0 0 0 5.915-5.6v-14.862a5.436 5.436 0 0 0 -1.715-4.012 5.7 5.7 0 0 0 -4.2-1.526h-9.085v-9.3a5.543 5.543 0 0 0 -5.755-5.7h-14.862c-3.314 0-6.383 2.382-6.383 5.7v9.3h-8.459a5.18 5.18 0 0 0 -5.441 4.428zm35.145 7.572h8.755v2h-8.754a6.566 6.566 0 0 0 -6.246 6.4v8.6h-3v-8.6c0-3.314-2.3-6.4-5.616-6.4h-8.384v-2h8.383c3.313 0 5.617-3.149 5.617-6.462v-8.538h3v8.538a6.624 6.624 0 0 0 6.245 6.462zm174.35 6.4-.013 16.112a16.215 16.215 0 1 0 -.011 14.879l-.014 18.008a22.086 22.086 0 0 0 .209 3.02 60.543 60.543 0 0 1 -21.566 3.951c-.009.011-.033 0-.049 0a61.55 61.55 0 0 1 -50.145-26.054 36.162 36.162 0 0 0 -29.416-15.316h-1.442a36.168 36.168 0 0 0 -29.462 15.4 61.415 61.415 0 0 1 -71.56 22.283 22.074 22.074 0 0 0 .243-3.282l-.01-9.859a49.571 49.571 0 1 0 -26.529-56.173 18.777 18.777 0 0 0 -10.83 17.063v13.853a61.782 61.782 0 0 1 58.356-81.085l160.844-.2c33.651 0 61.229 27.587 61.475 61.236a61.44 61.44 0 0 1 -2.675 18.412v-12.216a18.7 18.7 0 1 0 -37.4-.028zm-10.2 23.54a4.216 4.216 0 1 1 -4.216-4.216 4.22 4.22 0 0 1 4.221 4.22zm124.605 218.06h-80v-103h80zm0-115h-80v-12h80zm13-97.021a20.245 20.245 0 0 1 -4.031 11.892l-6.349 8.691a65.164 65.164 0 0 0 -12.62 38.527v13.911h-62v-6.219a42.661 42.661 0 0 0 -24.345-37.914 10.5 10.5 0 0 1 -6.024-9.446l.05-49a6.661 6.661 0 1 1 13.319.01v28.223a16.278 16.278 0 0 0 16.279 16.146 6 6 0 1 0 -.033-12c-.063 0-.122-.015-.184-.018a73.644 73.644 0 0 0 -25.213-101.282l20.545-2.363a52.726 52.726 0 0 1 28.879 5.529l50.7 25.783a20.017 20.017 0 0 1 11.027 17.815z" fill="url(#linear-gradient-10)"/></svg>