<svg id="Layer_1" height="106" viewBox="0 0 512 512" width="106" xmlns="http://www.w3.org/2000/svg" xmlns:xlink="http://www.w3.org/1999/xlink" data-name="Layer 1"><linearGradient id="linear-gradient" gradientUnits="userSpaceOnUse" x1="382.405" x2="382.405" y1="476.813" y2="56.032"><stop offset=".322" stop-color="#a163f5"/><stop offset=".466" stop-color="#b074ee"/><stop offset=".752" stop-color="#d8a1dd"/><stop offset=".898" stop-color="#efbad3"/></linearGradient><linearGradient id="linear-gradient-2" x1="256.001" x2="256.001" xlink:href="#linear-gradient" y1="476.813" y2="56.032"/><linearGradient id="linear-gradient-3" x1="261.353" x2="261.353" xlink:href="#linear-gradient" y1="476.813" y2="56.032"/><linearGradient id="linear-gradient-4" x1="432.346" x2="432.346" xlink:href="#linear-gradient" y1="476.813" y2="56.032"/><linearGradient id="linear-gradient-5" x1="332.463" x2="332.463" xlink:href="#linear-gradient" y1="476.813" y2="56.032"/><linearGradient id="linear-gradient-7" x1="382.405" x2="382.405" xlink:href="#linear-gradient" y1="476.813" y2="56.032"/><linearGradient id="linear-gradient-8" x1="130" x2="130" xlink:href="#linear-gradient" y1="476.813" y2="56.032"/><linearGradient id="linear-gradient-9" x1="130.319" x2="130.319" xlink:href="#linear-gradient" y1="476.813" y2="56.032"/><linearGradient id="linear-gradient-10" x1="126.5" x2="126.5" xlink:href="#linear-gradient" y1="476.813" y2="56.032"/><linearGradient id="linear-gradient-11" x1="181.5" x2="181.5" xlink:href="#linear-gradient" y1="476.813" y2="56.032"/><path d="m406.565 309.585a24.161 24.161 0 1 0 -24.16 24.16 24.188 24.188 0 0 0 24.16-24.16zm-36.321 0a12.161 12.161 0 1 1 12.161 12.16 12.174 12.174 0 0 1 -12.161-12.16z" fill="url(#linear-gradient)"/><path d="m501.418 414.258-16.29-109.964a112.459 112.459 0 0 0 -102.723-157.294h-58.405v-1.1a24.654 24.654 0 0 0 -24.85-24.9h-18.15v-8.544a19.717 19.717 0 0 0 -14-18.819v-44.79a21 21 0 1 1 42 0v29.753a40.594 40.594 0 0 0 40.588 40.4h.085a6.029 6.029 0 0 0 6.042-5.991 6.124 6.124 0 0 0 -6.148-6 28.576 28.576 0 0 1 -28.567-28.409v-29.753a33 33 0 1 0 -66 0v45.118a19.044 19.044 0 0 0 -13 18.491v8.544h-18.443c-13.911 0-25.557 10.985-25.557 24.9v1.1h-68.406c-36.322 1-70.521 18.009-91.483 47.671a111.722 111.722 0 0 0 -18.942 83.848 113.406 113.406 0 0 0 8.084 26.8l-16.506 111.459a68.728 68.728 0 0 0 47.8 75.773 68.068 68.068 0 0 0 20 3 69.019 69.019 0 0 0 60.432-35.684l62.321-113.813a111.516 111.516 0 0 0 20.016-21.6 41.213 41.213 0 0 1 33.71-17.454h2.247a41.18 41.18 0 0 1 33.637 17.333 111.467 111.467 0 0 0 20.147 21.694l61.49 114.648a69.018 69.018 0 0 0 60.433 35.687 68.084 68.084 0 0 0 20-3c32.715-10.044 52.645-42.492 48.465-78.907-.009-.067-.017-.132-.027-.197zm-247.418-301.801a7.5 7.5 0 1 1 15 0v8.543h-15zm-44 33.443c0-7.294 6.263-12.9 13.557-12.9h75.593a12.644 12.644 0 0 1 12.85 12.9v1.1h-102zm-81.546 308.211a56.708 56.708 0 0 1 -105.836-35.544l14.214-95.955a112.323 112.323 0 0 0 92.718 49.149 113.271 113.271 0 0 0 50.492-11.872zm172.255-136.5a53.388 53.388 0 0 0 -43.432-22.611h-2.261a53.21 53.21 0 0 0 -43.51 22.536 100.183 100.183 0 1 1 -81.906-158.05h252.8a100.261 100.261 0 0 1 0 200.514h-.075a100.161 100.161 0 0 1 -81.616-42.386zm148.748 164.278a56.9 56.9 0 0 1 -66.357-26.931l-51.11-95.291a111.973 111.973 0 0 0 50.329 11.966c.029 0 .054-.021.087-.023a111.228 111.228 0 0 0 79.425-33.2 114.076 114.076 0 0 0 13.739-16.746l13.963 94.253c3.467 30.542-13.004 57.661-40.076 65.972z" fill="url(#linear-gradient-2)"/><path d="m286.245 183h-49.783a20 20 0 0 0 0 40h49.783a20 20 0 0 0 0-40zm-31.245 28h-18.538a8 8 0 0 1 0-16h18.538zm31.245 0h-19.245v-16h19.245a8 8 0 0 1 0 16z" fill="url(#linear-gradient-3)"/><path d="m432.346 283.8a24.161 24.161 0 1 0 -24.16-24.16 24.188 24.188 0 0 0 24.16 24.16zm0-36.321a12.161 12.161 0 1 1 -12.16 12.161 12.174 12.174 0 0 1 12.16-12.157z" fill="url(#linear-gradient-4)"/><path d="m332.463 235.483a24.161 24.161 0 1 0 24.161 24.161 24.187 24.187 0 0 0 -24.161-24.161zm0 36.321a12.161 12.161 0 1 1 12.161-12.16 12.174 12.174 0 0 1 -12.161 12.156z" fill="url(#linear-gradient-5)"/><path d="m382.405 233.862a24.16 24.16 0 1 0 -24.161-24.16 24.187 24.187 0 0 0 24.161 24.16zm0-36.32a12.16 12.16 0 1 1 -12.161 12.16 12.174 12.174 0 0 1 12.161-12.16z" fill="url(#linear-gradient)"/><path d="m371.552 259.644a10.853 10.853 0 1 0 10.853-10.853 10.865 10.865 0 0 0 -10.853 10.853zm12 0a1.147 1.147 0 1 1 -1.147-1.147 1.149 1.149 0 0 1 1.147 1.147z" fill="url(#linear-gradient-7)"/><path d="m165.325 242h-17.325v-17.362a5.7 5.7 0 0 0 -6-5.638h-23.359a5.4 5.4 0 0 0 -5.641 5.638v17.362h-17.686a6.246 6.246 0 0 0 -6.314 5.965v23.358c0 3.313 3 5.677 6.314 5.677h17.686v17.649c0 3.313 2.329 6.351 5.643 6.351h23.357a6.31 6.31 0 0 0 6-6.351v-17.649h17.324a5.462 5.462 0 0 0 5.676-5.677v-23.358a5.814 5.814 0 0 0 -1.595-4.225 5.614 5.614 0 0 0 -4.08-1.74zm-6.325 23h-17a6.285 6.285 0 0 0 -6 6.323v17.677h-11v-17.677a6.6 6.6 0 0 0 -6.357-6.323h-17.643v-11h17.641a6.347 6.347 0 0 0 6.359-6.035v-16.965h11v16.965a6.029 6.029 0 0 0 6 6.035h17z" fill="url(#linear-gradient-8)"/><path d="m130.319 187.644a72 72 0 1 0 72 72 72.081 72.081 0 0 0 -72-72zm0 132a60 60 0 1 1 60-60 60.068 60.068 0 0 1 -60 60z" fill="url(#linear-gradient-9)"/><path d="m124 182h5a6 6 0 0 0 0-12h-5a6 6 0 0 0 0 12z" fill="url(#linear-gradient-10)"/><path d="m221 176a6 6 0 0 0 -6-6h-67a6 6 0 0 0 0 12h67a6 6 0 0 0 6-6z" fill="url(#linear-gradient-11)"/></svg>