<svg id="Layer_1" height="106" viewBox="0 0 512 512" width="106" xmlns="http://www.w3.org/2000/svg" xmlns:xlink="http://www.w3.org/1999/xlink" data-name="Layer 1"><linearGradient id="linear-gradient" gradientUnits="userSpaceOnUse" x1="271.525" x2="271.525" y1="459.755" y2="74.757"><stop offset=".322" stop-color="#a163f5"/><stop offset=".466" stop-color="#b074ee"/><stop offset=".752" stop-color="#d8a1dd"/><stop offset=".898" stop-color="#efbad3"/></linearGradient><linearGradient id="linear-gradient-2" x1="354.717" x2="354.717" xlink:href="#linear-gradient" y1="459.755" y2="74.757"/><linearGradient id="linear-gradient-3" x1="313.121" x2="313.121" xlink:href="#linear-gradient" y1="459.755" y2="74.757"/><linearGradient id="linear-gradient-4" x1="261.272" x2="261.272" xlink:href="#linear-gradient" y1="459.755" y2="74.757"/><linearGradient id="linear-gradient-5" x1="429.674" x2="429.674" xlink:href="#linear-gradient" y1="459.755" y2="74.757"/><linearGradient id="linear-gradient-6" x1="331.304" x2="331.304" xlink:href="#linear-gradient" y1="459.755" y2="74.757"/><linearGradient id="linear-gradient-7" x1="380.489" x2="380.489" xlink:href="#linear-gradient" y1="459.755" y2="74.757"/><linearGradient id="linear-gradient-10" x1="132.5" x2="132.5" xlink:href="#linear-gradient" y1="459.755" y2="74.757"/><linearGradient id="linear-gradient-11" x1="132.224" x2="132.224" xlink:href="#linear-gradient" y1="459.755" y2="74.757"/><linearGradient id="linear-gradient-12" x1="256" x2="256" xlink:href="#linear-gradient" y1="459.755" y2="74.757"/><linearGradient id="linear-gradient-13" x1="128.5" x2="128.5" xlink:href="#linear-gradient" y1="459.755" y2="74.757"/><linearGradient id="linear-gradient-14" x1="183" x2="183" xlink:href="#linear-gradient" y1="459.755" y2="74.757"/><path d="m290.73 44.724a6 6 0 0 0 -8.484.136l-30.064 31.049a6 6 0 0 0 0 8.348l30.064 31.049a6 6 0 0 0 8.621-8.348l-26.023-26.875 26.023-26.875a6 6 0 0 0 -.137-8.484z" fill="url(#linear-gradient)"/><path d="m335.512 115.442a6 6 0 0 0 8.484-.136l30.064-31.049a6 6 0 0 0 0-8.348l-30.06-31.049a6 6 0 0 0 -8.621 8.348l26.021 26.875-26.023 26.875a6 6 0 0 0 .135 8.484z" fill="url(#linear-gradient-2)"/><path d="m325.64 30.548a6 6 0 0 0 -7.287 4.347l-22.1 87.436a6 6 0 1 0 11.634 2.94l22.1-87.436a6 6 0 0 0 -4.347-7.287z" fill="url(#linear-gradient-3)"/><path d="m285.787 198h-49.029a19.5 19.5 0 1 0 0 39h49.029a19.5 19.5 0 1 0 0-39zm-30.787 27h-18.242a7.5 7.5 0 1 1 0-15h18.242zm30.787 0h-18.787v-15h18.787a7.5 7.5 0 1 1 0 15z" fill="url(#linear-gradient-4)"/><path d="m429.673 297.631a23.885 23.885 0 1 0 -23.884-23.885 23.912 23.912 0 0 0 23.884 23.885zm0-35.77a11.885 11.885 0 1 1 -11.884 11.885 11.9 11.9 0 0 1 11.884-11.885z" fill="url(#linear-gradient-5)"/><path d="m331.3 249.861a23.885 23.885 0 1 0 23.885 23.885 23.912 23.912 0 0 0 -23.885-23.885zm0 35.77a11.885 11.885 0 1 1 11.885-11.885 11.9 11.9 0 0 1 -11.885 11.885z" fill="url(#linear-gradient-6)"/><g fill="url(#linear-gradient-7)"><path d="m404.374 322.931a23.885 23.885 0 1 0 -23.885 23.885 23.912 23.912 0 0 0 23.885-23.885zm-35.77 0a11.885 11.885 0 1 1 11.885 11.885 11.9 11.9 0 0 1 -11.889-11.885z"/><path d="m380.489 248.447a23.885 23.885 0 1 0 -23.889-23.885 23.912 23.912 0 0 0 23.889 23.885zm0-35.77a11.885 11.885 0 1 1 -11.889 11.885 11.9 11.9 0 0 1 11.889-11.885z"/><path d="m369.709 273.746a10.78 10.78 0 1 0 10.78-10.779 10.792 10.792 0 0 0 -10.78 10.779zm12 0a1.22 1.22 0 1 1 -1.22-1.22 1.222 1.222 0 0 1 1.22 1.22z"/></g><path d="m166.7 256h-16.7v-16.729a6.476 6.476 0 0 0 -6.273-6.271h-23.005c-3.313 0-5.722 2.958-5.722 6.271v16.729h-17.251a6.006 6.006 0 0 0 -5.749 6.245v23a5.583 5.583 0 0 0 5.749 5.755h17.251v17.221a5.585 5.585 0 0 0 5.724 5.779h23.005a6.054 6.054 0 0 0 6.271-5.779v-17.221h16.7c3.314 0 6.3-2.437 6.3-5.751v-23a6.477 6.477 0 0 0 -6.3-6.249zm-5.7 23h-17.271a5.994 5.994 0 0 0 -5.729 6.249v16.751h-11v-16.751a6.458 6.458 0 0 0 -6.276-6.249h-16.724v-11h16.722c3.314 0 6.278-2.442 6.278-5.755v-17.245h11v17.245a5.568 5.568 0 0 0 5.727 5.755h17.273z" fill="url(#linear-gradient-10)"/><path d="m132.224 202.747a71 71 0 1 0 71 71 71.08 71.08 0 0 0 -71-71zm0 130a59 59 0 1 1 59-59 59.066 59.066 0 0 1 -59 58.999z" fill="url(#linear-gradient-11)"/><path d="m497.789 426-16.04-108.278a110.6 110.6 0 0 0 -101.26-154.722h-30.051a22.608 22.608 0 0 1 3.794-8.072c3.084-3.946 7.645-5.928 13.944-5.928h17.669a26.121 26.121 0 0 0 26.155-26.347v-91.175a26.234 26.234 0 0 0 -26.155-26.478h-145.445a26.439 26.439 0 0 0 -26.4 26.479v91.221a26.276 26.276 0 0 0 26.369 26.3h66.34a65.052 65.052 0 0 0 1.408 14.144l-176.647.024a110.685 110.685 0 0 0 -100.849 155.632l-16.249 109.714a67.764 67.764 0 0 0 126.46 42.472l61.385-112.116a112.063 112.063 0 0 0 19.7-21.485 40.722 40.722 0 0 1 33.124-17.385h2.212a40.691 40.691 0 0 1 33.054 17.27 110.455 110.455 0 0 0 19.762 21.384l60.631 113.085a68.078 68.078 0 0 0 59.6 35.211 67.131 67.131 0 0 0 19.721-2.95c32.262-9.9 51.916-41.9 47.793-77.805-.007-.065-.014-.126-.025-.195zm-257.4-289h-.015a14.276 14.276 0 0 1 -14.374-14.347v-91.173a14.425 14.425 0 0 1 14.4-14.48h145.445a14.222 14.222 0 0 1 14.155 14.479v91.172a14.109 14.109 0 0 1 -14.155 14.349h-17.669c-10.094 0-17.966 3.59-23.4 10.54-8.394 10.739-8.432 27.4-7.227 38.572a42.406 42.406 0 0 1 -5.166-3.883c-9.659-8.53-14.242-20.4-13.621-35.294a9.428 9.428 0 0 0 -8.742-9.854c-.16-.009-.32-.081-.532-.081zm-110.082 328.223a55.758 55.758 0 0 1 -104.063-34.949l13.965-94.274a110.946 110.946 0 0 0 91.178 48.318 112 112 0 0 0 49.558-11.587zm169.799-134.923a52.662 52.662 0 0 0 -42.849-22.3h-2.226a52.718 52.718 0 0 0 -42.925 22.471 98.538 98.538 0 1 1 -80.59-155.471h180.628a50.849 50.849 0 0 0 12.3 16.174 53.533 53.533 0 0 0 19.334 11.026 5.974 5.974 0 0 0 7.386-7.212 85.859 85.859 0 0 1 -2.2-19.986h31.53a98.5 98.5 0 0 1 -.006 197h-.073a98.54 98.54 0 0 1 -80.309-41.702zm146.394 162.237a55.95 55.95 0 0 1 -65.247-26.479l-50.253-93.687a110.238 110.238 0 0 0 49.4 11.713.8.8 0 0 1 .085 0 109.627 109.627 0 0 0 78.286-32.71 112.431 112.431 0 0 0 13.41-16.312l13.718 92.6c3.413 30.038-12.781 56.703-39.399 64.875z" fill="url(#linear-gradient-12)"/><path d="m126 198h5a6 6 0 0 0 0-12h-5a6 6 0 0 0 0 12z" fill="url(#linear-gradient-13)"/><path d="m222 192a6 6 0 0 0 -6-6h-66a6 6 0 0 0 0 12h66a6 6 0 0 0 6-6z" fill="url(#linear-gradient-14)"/></svg>