<svg width="66" height="174" viewBox="0 0 66 174" fill="none" xmlns="http://www.w3.org/2000/svg"><path d="M24.071 16.939c.387.297.647.753.63 1.305-.014.485-.027.969-.043 1.454a109.313 109.313 0 015.115-12.055 554.653 554.653 0 00-13.842 10.32c2.112-.593 4.225-1.184 6.337-1.778.845-.237 1.473.165 1.803.754zm22.615 93.309c-3.022-11.544-15.836-6.532-18.75 1.747-1.874 5.329-1.254 11.77-.132 17.211 10.529 1.032 22.018-6.971 18.882-18.958zM36.11 2.939c-5.547 9.59-9.49 19.716-11.91 30.53-.42 1.87-3.373 1.45-3.319-.46.104-3.396.205-6.789.305-10.181-11.3 13.53-16.434 30.749-17.428 48.335-1.025 18.109-.563 46.141 17.538 56.08.95.523 1.948.932 2.972 1.25-1.464-7.783-1.596-16.855 3.5-23.122 4.167-5.124 12.004-7.653 17.64-3.284 14.548 11.27-2.079 32.021-16.68 30.916 5.008 17.726 18.895 31.806 36.04 38.308 1.186.45.736 2.309-.531 1.941-19.106-5.56-34.153-21.522-39.078-40.819C5.106 127.822 1.128 101.564.33 84.221-.719 61.633 3.927 38.291 18.515 20.74l-9.873 2.771c-1.507.423-2.99-1.742-1.635-2.818A568.713 568.713 0 0133.797.636c1.423-1.002 3.114.92 2.313 2.303z" fill="#8DD9E5"/><path d="M24.071 16.939c.387.297.647.753.63 1.305-.014.485-.027.969-.043 1.454a109.313 109.313 0 015.115-12.055 554.653 554.653 0 00-13.842 10.32c2.112-.593 4.225-1.184 6.337-1.778.845-.237 1.473.165 1.803.754zm22.615 93.309c-3.022-11.544-15.836-6.532-18.75 1.747-1.874 5.329-1.254 11.77-.132 17.211 10.529 1.032 22.018-6.971 18.882-18.958zM36.11 2.939c-5.547 9.59-9.49 19.716-11.91 30.53-.42 1.87-3.373 1.45-3.319-.46.104-3.396.205-6.789.305-10.181-11.3 13.53-16.434 30.749-17.428 48.335-1.025 18.109-.563 46.141 17.538 56.08.95.523 1.948.932 2.972 1.25-1.464-7.783-1.596-16.855 3.5-23.122 4.167-5.124 12.004-7.653 17.64-3.284 14.548 11.27-2.079 32.021-16.68 30.916 5.008 17.726 18.895 31.806 36.04 38.308 1.186.45.736 2.309-.531 1.941-19.106-5.56-34.153-21.522-39.078-40.819C5.106 127.822 1.128 101.564.33 84.221-.719 61.633 3.927 38.291 18.515 20.74l-9.873 2.771c-1.507.423-2.99-1.742-1.635-2.818A568.713 568.713 0 0133.797.636c1.423-1.002 3.114.92 2.313 2.303z" fill="#5879E8"/></svg>