<svg width="135" height="23" viewBox="0 0 135 23" fill="none" xmlns="http://www.w3.org/2000/svg">
<path d="M9.93711 23C6.87093 23 4.47618 22.244 2.75285 20.7319C1.0519 19.2199 0.145476 17.1116 0.0335714 14.4069C0.0111905 13.7894 0 12.7991 0 11.4361C0 10.0731 0.0111905 9.08287 0.0335714 8.46528C0.145476 5.82454 1.06309 3.7588 2.78642 2.26805C4.53213 0.756018 6.91569 0 9.93711 0C11.9962 0 13.7642 0.330093 15.2414 0.990278C16.7185 1.65046 17.8376 2.48102 18.5985 3.48195C19.3595 4.46157 19.7623 5.43056 19.8071 6.38889V6.45278C19.8071 6.62315 19.7399 6.77222 19.6057 6.9C19.4714 7.00648 19.3035 7.05972 19.1021 7.05972H15.6442C15.4204 7.05972 15.2526 7.02778 15.1407 6.96389C15.0288 6.8787 14.928 6.74028 14.8385 6.54861C14.5252 5.76065 13.9769 5.08981 13.1935 4.53611C12.4102 3.96111 11.3247 3.67361 9.93711 3.67361C8.37045 3.67361 7.1395 4.07824 6.24427 4.8875C5.37141 5.69676 4.90141 6.94259 4.83427 8.625C4.81189 9.24259 4.8007 10.1796 4.8007 11.4361C4.8007 12.6713 4.81189 13.6083 4.83427 14.2472C4.96856 17.6333 6.69188 19.3264 10.0043 19.3264C11.5933 19.3264 12.869 18.9218 13.8314 18.1125C14.7938 17.2819 15.275 16.0574 15.275 14.4389V13.4486H11.1793C10.9331 13.4486 10.7316 13.3741 10.575 13.225C10.4407 13.0759 10.3735 12.8843 10.3735 12.65V10.9569C10.3735 10.7227 10.4407 10.531 10.575 10.3819C10.7316 10.2329 10.9331 10.1583 11.1793 10.1583H19.2028C19.449 10.1583 19.6392 10.2329 19.7735 10.3819C19.9302 10.531 20.0085 10.7227 20.0085 10.9569V14.3111C20.0085 16.0787 19.5945 17.6227 18.7664 18.9431C17.9607 20.2421 16.7969 21.2431 15.275 21.9458C13.7531 22.6486 11.9738 23 9.93711 23Z" fill="#122659"/>
<path d="M28.9786 23C27.8372 23 26.7853 22.787 25.8229 22.3611C24.8829 21.9139 24.1331 21.3176 23.5736 20.5722C23.0365 19.8269 22.7679 19.0069 22.7679 18.1125C22.7679 16.6644 23.3834 15.4931 24.6143 14.5986C25.8453 13.7042 27.535 13.0972 29.6836 12.7778L34.2829 12.1389V11.4681C34.2829 10.531 34.0367 9.82824 33.5443 9.35972C33.0519 8.8912 32.2574 8.65695 31.1607 8.65695C30.4222 8.65695 29.8179 8.79537 29.3479 9.07222C28.9003 9.32778 28.5422 9.58333 28.2736 9.83889C28.005 10.1157 27.826 10.2968 27.7365 10.3819C27.6469 10.6375 27.4791 10.7653 27.2329 10.7653H24.6479C24.4465 10.7653 24.2674 10.7014 24.1108 10.5736C23.9765 10.4458 23.9093 10.2755 23.9093 10.0625C23.9317 9.53009 24.2003 8.92315 24.7151 8.24167C25.2522 7.56018 26.0691 6.97454 27.1658 6.48472C28.2624 5.99491 29.6053 5.75 31.1943 5.75C33.8353 5.75 35.76 6.31435 36.9686 7.44306C38.1772 8.57176 38.7814 10.0519 38.7814 11.8833V21.9139C38.7814 22.1269 38.7031 22.3079 38.5464 22.4569C38.4122 22.606 38.2219 22.6806 37.9757 22.6806H35.2564C35.0326 22.6806 34.8424 22.606 34.6857 22.4569C34.5291 22.3079 34.4507 22.1269 34.4507 21.9139V20.6681C33.9584 21.3495 33.2534 21.9139 32.3357 22.3611C31.4405 22.787 30.3215 23 28.9786 23ZM30.12 19.9653C31.351 19.9653 32.3581 19.5819 33.1415 18.8153C33.9248 18.0486 34.3165 16.9306 34.3165 15.4611V14.7903L30.9593 15.3014C29.6612 15.4931 28.6765 15.8019 28.005 16.2278C27.356 16.6537 27.0315 17.1755 27.0315 17.7931C27.0315 18.4745 27.3336 19.0069 27.9379 19.3903C28.5422 19.7736 29.2696 19.9653 30.12 19.9653Z" fill="#122659"/>
<path d="M43.894 22.6806C43.6702 22.6806 43.4799 22.606 43.3233 22.4569C43.1666 22.3079 43.0883 22.1269 43.0883 21.9139V6.83611C43.0883 6.62315 43.1666 6.44213 43.3233 6.29306C43.4799 6.14398 43.6702 6.06944 43.894 6.06944H46.5125C46.7364 6.06944 46.9266 6.14398 47.0833 6.29306C47.2399 6.44213 47.3183 6.62315 47.3183 6.83611V7.92222C48.4821 6.47407 50.1047 5.75 52.1861 5.75C54.6704 5.75 56.4049 6.69768 57.3897 8.59306C57.9268 7.7412 58.6877 7.05972 59.6725 6.54861C60.6573 6.0162 61.7204 5.75 62.8618 5.75C64.697 5.75 66.1965 6.3463 67.3603 7.53889C68.5241 8.73148 69.106 10.4671 69.106 12.7458V21.9139C69.106 22.1269 69.0277 22.3079 68.871 22.4569C68.7368 22.606 68.5465 22.6806 68.3003 22.6806H65.5475C65.3237 22.6806 65.1334 22.606 64.9768 22.4569C64.8201 22.3079 64.7418 22.1269 64.7418 21.9139V13.0014C64.7418 11.6597 64.4396 10.6907 63.8353 10.0944C63.2534 9.47685 62.4701 9.16806 61.4854 9.16806C60.6125 9.16806 59.8627 9.47685 59.2361 10.0944C58.6318 10.712 58.3297 11.681 58.3297 13.0014V21.9139C58.3297 22.1269 58.2513 22.3079 58.0947 22.4569C57.938 22.606 57.7477 22.6806 57.5239 22.6806H54.7711C54.5473 22.6806 54.357 22.606 54.2004 22.4569C54.0437 22.3079 53.9654 22.1269 53.9654 21.9139V13.0014C53.9654 11.6597 53.6521 10.6907 53.0254 10.0944C52.4211 9.47685 51.649 9.16806 50.709 9.16806C49.8137 9.16806 49.0528 9.47685 48.4261 10.0944C47.8218 10.712 47.5197 11.681 47.5197 13.0014V21.9139C47.5197 22.1269 47.4414 22.3079 47.2847 22.4569C47.128 22.606 46.9378 22.6806 46.714 22.6806H43.894Z" fill="#122659"/>
<path d="M80.9011 23C78.4168 23 76.4361 22.3185 74.959 20.9556C73.5042 19.5713 72.7321 17.6333 72.6426 15.1417L72.609 14.3431L72.6426 13.5444C72.7545 11.1167 73.5378 9.21065 74.9926 7.82639C76.4697 6.44213 78.4392 5.75 80.9011 5.75C83.5421 5.75 85.5787 6.51667 87.0111 8.05C88.4659 9.58333 89.1932 11.6278 89.1932 14.1833V14.8542C89.1932 15.0671 89.1149 15.2481 88.9582 15.3972C88.8016 15.5463 88.6001 15.6208 88.354 15.6208H77.2083V15.8764C77.253 17.0477 77.5887 18.038 78.2154 18.8472C78.8645 19.6352 79.7485 20.0292 80.8675 20.0292C82.188 20.0292 83.2511 19.5394 84.0568 18.5597C84.2582 18.3255 84.4149 18.1764 84.5268 18.1125C84.6611 18.0486 84.8513 18.0167 85.0975 18.0167H87.9847C88.1861 18.0167 88.354 18.0806 88.4882 18.2083C88.6449 18.3148 88.7232 18.4532 88.7232 18.6236C88.7232 19.1347 88.3987 19.7417 87.7497 20.4444C87.123 21.1259 86.2166 21.7222 85.0304 22.2333C83.8442 22.7444 82.4678 23 80.9011 23ZM84.6275 12.9375V12.8417C84.6275 11.5852 84.2918 10.5736 83.6204 9.80694C82.9714 9.04028 82.0649 8.65695 80.9011 8.65695C79.7373 8.65695 78.8309 9.04028 78.1818 9.80694C77.5328 10.5736 77.2083 11.5852 77.2083 12.8417V12.9375H84.6275Z" fill="#122659"/>
<path d="M102.19 23C99.1465 23 96.7741 22.2653 95.0732 20.7958C93.3723 19.3264 92.477 17.1435 92.3875 14.2472C92.3651 13.6296 92.3539 12.7245 92.3539 11.5319C92.3539 10.3181 92.3651 9.40232 92.3875 8.78472C92.477 5.95232 93.3946 3.78009 95.1403 2.26805C96.886 0.756018 99.236 0 102.19 0C105.145 0 107.495 0.756018 109.24 2.26805C111.008 3.78009 111.937 5.95232 112.027 8.78472C112.071 10.0199 112.094 10.9356 112.094 11.5319C112.094 12.1069 112.071 13.012 112.027 14.2472C111.915 17.1435 111.008 19.3264 109.307 20.7958C107.606 22.2653 105.234 23 102.19 23ZM102.19 19.3264C103.69 19.3264 104.887 18.9005 105.782 18.0486C106.678 17.1755 107.159 15.8551 107.226 14.0875C107.271 12.8097 107.293 11.9472 107.293 11.5C107.293 11.0102 107.271 10.1477 107.226 8.9125C107.159 7.14491 106.678 5.83519 105.782 4.98333C104.887 4.11019 103.69 3.67361 102.19 3.67361C100.713 3.67361 99.527 4.11019 98.6318 4.98333C97.7365 5.83519 97.2553 7.14491 97.1882 8.9125C97.1658 9.53009 97.1546 10.3926 97.1546 11.5C97.1546 12.5861 97.1658 13.4486 97.1882 14.0875C97.2553 15.8551 97.7253 17.1755 98.5982 18.0486C99.4934 18.9005 100.691 19.3264 102.19 19.3264Z" fill="#122659"/>
<path d="M117.308 22.6806C117.084 22.6806 116.894 22.606 116.737 22.4569C116.581 22.3079 116.502 22.1269 116.502 21.9139V1.11806C116.502 0.883796 116.569 0.69213 116.704 0.543056C116.86 0.393981 117.062 0.319444 117.308 0.319444H119.893C120.161 0.319444 120.363 0.372685 120.497 0.479166C120.631 0.564352 120.755 0.681482 120.866 0.830556L130.535 15.1417V1.11806C130.535 0.883796 130.602 0.69213 130.736 0.543056C130.893 0.393981 131.095 0.319444 131.341 0.319444H134.161C134.407 0.319444 134.608 0.393981 134.765 0.543056C134.922 0.69213 135 0.883796 135 1.11806V21.8819C135 22.1162 134.922 22.3079 134.765 22.4569C134.608 22.606 134.418 22.6806 134.194 22.6806H131.576C131.195 22.6806 130.871 22.5102 130.602 22.1694L120.967 8.17778V21.9139C120.967 22.1481 120.889 22.3398 120.732 22.4889C120.576 22.6167 120.374 22.6806 120.128 22.6806H117.308Z" fill="#122659"/>
</svg>
