<svg width="32" height="39" viewBox="0 0 32 39" fill="none" xmlns="http://www.w3.org/2000/svg"><path d="M27.314 27.577L16 39 4.686 27.577a16.203 16.203 0 01-4.379-8.271 16.3 16.3 0 01.911-9.334 16.122 16.122 0 015.893-7.25A15.891 15.891 0 0116 0c3.165 0 6.258.947 8.89 2.722a16.122 16.122 0 015.892 7.25 16.299 16.299 0 01.91 9.334 16.204 16.204 0 01-4.378 8.271zM16 19.744c.943 0 1.847-.378 2.514-1.051a3.607 3.607 0 001.042-2.539c0-.952-.375-1.865-1.042-2.538A3.539 3.539 0 0016 12.564a3.54 3.54 0 00-2.514 1.052 3.607 3.607 0 00-1.042 2.538 3.61 3.61 0 001.042 2.539A3.539 3.539 0 0016 19.744z" fill="#5879E8"/></svg>