<svg xmlns="http://www.w3.org/2000/svg" xmlns:xlink="http://www.w3.org/1999/xlink"><symbol id="icon-arrow-left" viewBox="0 0 17 10"><path d="M16 5H1m0 0l4-4M1 5l4 4" stroke="#122659" stroke-width="2" stroke-linecap="round" stroke-linejoin="round"/></symbol><symbol id="icon-arrow-right" viewBox="0 0 17 10"><path d="M1 5h15m0 0l-4 4m4-4l-4-4" stroke="#122659" stroke-width="2" stroke-linecap="round" stroke-linejoin="round"/></symbol><symbol id="icon-arrow-up" viewBox="0 0 66 174"><path d="M24.071 16.939c.387.297.647.753.63 1.305-.014.485-.027.969-.043 1.454a109.313 109.313 0 015.115-12.055 554.653 554.653 0 00-13.842 10.32c2.112-.593 4.225-1.184 6.337-1.778.845-.237 1.473.165 1.803.754zm22.615 93.309c-3.022-11.544-15.836-6.532-18.75 1.747-1.874 5.329-1.254 11.77-.132 17.211 10.529 1.032 22.018-6.971 18.882-18.958zM36.11 2.939c-5.547 9.59-9.49 19.716-11.91 30.53-.42 1.87-3.373 1.45-3.319-.46.104-3.396.205-6.789.305-10.181-11.3 13.53-16.434 30.749-17.428 48.335-1.025 18.109-.563 46.141 17.538 56.08.95.523 1.948.932 2.972 1.25-1.464-7.783-1.596-16.855 3.5-23.122 4.167-5.124 12.004-7.653 17.64-3.284 14.548 11.27-2.079 32.021-16.68 30.916 5.008 17.726 18.895 31.806 36.04 38.308 1.186.45.736 2.309-.531 1.941-19.106-5.56-34.153-21.522-39.078-40.819C5.106 127.822 1.128 101.564.33 84.221-.719 61.633 3.927 38.291 18.515 20.74l-9.873 2.771c-1.507.423-2.99-1.742-1.635-2.818A568.713 568.713 0 0133.797.636c1.423-1.002 3.114.92 2.313 2.303z" fill="#8DD9E5"/><path d="M24.071 16.939c.387.297.647.753.63 1.305-.014.485-.027.969-.043 1.454a109.313 109.313 0 015.115-12.055 554.653 554.653 0 00-13.842 10.32c2.112-.593 4.225-1.184 6.337-1.778.845-.237 1.473.165 1.803.754zm22.615 93.309c-3.022-11.544-15.836-6.532-18.75 1.747-1.874 5.329-1.254 11.77-.132 17.211 10.529 1.032 22.018-6.971 18.882-18.958zM36.11 2.939c-5.547 9.59-9.49 19.716-11.91 30.53-.42 1.87-3.373 1.45-3.319-.46.104-3.396.205-6.789.305-10.181-11.3 13.53-16.434 30.749-17.428 48.335-1.025 18.109-.563 46.141 17.538 56.08.95.523 1.948.932 2.972 1.25-1.464-7.783-1.596-16.855 3.5-23.122 4.167-5.124 12.004-7.653 17.64-3.284 14.548 11.27-2.079 32.021-16.68 30.916 5.008 17.726 18.895 31.806 36.04 38.308 1.186.45.736 2.309-.531 1.941-19.106-5.56-34.153-21.522-39.078-40.819C5.106 127.822 1.128 101.564.33 84.221-.719 61.633 3.927 38.291 18.515 20.74l-9.873 2.771c-1.507.423-2.99-1.742-1.635-2.818A568.713 568.713 0 0133.797.636c1.423-1.002 3.114.92 2.313 2.303z" fill="#5879E8"/></symbol><symbol id="icon-burger" viewBox="0 0 24 14"><path d="M0 1h24M0 7h24M0 13h24" stroke="#122659" stroke-width="2"/></symbol><symbol id="icon-copyright" viewBox="0 0 12 12"><path d="M6 0c3.312 0 6 2.688 6 6s-2.688 6-6 6-6-2.688-6-6 2.688-6 6-6zm0 1.2A4.799 4.799 0 001.2 6c0 2.652 2.148 4.8 4.8 4.8 2.652 0 4.8-2.148 4.8-4.8 0-2.652-2.148-4.8-4.8-4.8zM6 3a3 3 0 012.573 1.457l-1.029.617a1.8 1.8 0 100 1.852l1.029.617A3 3 0 013 6c0-1.656 1.344-3 3-3z" fill="#122659"/></symbol><symbol id="icon-cross" viewBox="0 0 20 20"><path d="M1 1l9 9m9 9l-9-9m0 0l9-9L1 19" stroke="#122947" stroke-width="2"/></symbol><symbol id="icon-fb" viewBox="0 0 6 12">
<path d="M4 6.9H5.42857L6 4.5H4V3.3C4 2.682 4 2.1 5.14286 2.1H6V0.0840001C5.81371 0.0582001 5.11029 0 4.36743 0C2.816 0 1.71429 0.9942 1.71429 2.82V4.5H0V6.9H1.71429V12H4V6.9Z" fill="#122659"/>
</symbol><symbol id="icon-instagram" viewBox="0 0 12 12">
<path d="M6 0C7.6302 0 7.8336 0.00599997 8.4732 0.036C9.1122 0.066 9.5472 0.1662 9.93 0.315C10.326 0.4674 10.6596 0.6738 10.9932 1.0068C11.2983 1.30674 11.5344 1.66955 11.685 2.07C11.8332 2.4522 11.934 2.8878 11.964 3.5268C11.9922 4.1664 12 4.3698 12 6C12 7.6302 11.994 7.8336 11.964 8.4732C11.934 9.1122 11.8332 9.5472 11.685 9.93C11.5348 10.3307 11.2987 10.6936 10.9932 10.9932C10.6932 11.2982 10.3304 11.5343 9.93 11.685C9.5478 11.8332 9.1122 11.934 8.4732 11.964C7.8336 11.9922 7.6302 12 6 12C4.3698 12 4.1664 11.994 3.5268 11.964C2.8878 11.934 2.4528 11.8332 2.07 11.685C1.6694 11.5347 1.30652 11.2986 1.0068 10.9932C0.701644 10.6933 0.465559 10.3305 0.315 9.93C0.1662 9.5478 0.066 9.1122 0.036 8.4732C0.00779997 7.8336 0 7.6302 0 6C0 4.3698 0.00599997 4.1664 0.036 3.5268C0.066 2.8872 0.1662 2.4528 0.315 2.07C0.465142 1.66931 0.701282 1.30639 1.0068 1.0068C1.3066 0.701539 1.66946 0.465438 2.07 0.315C2.4528 0.1662 2.8872 0.066 3.5268 0.036C4.1664 0.00779997 4.3698 0 6 0ZM6 3C5.20435 3 4.44129 3.31607 3.87868 3.87868C3.31607 4.44129 3 5.20435 3 6C3 6.79565 3.31607 7.55871 3.87868 8.12132C4.44129 8.68393 5.20435 9 6 9C6.79565 9 7.55871 8.68393 8.12132 8.12132C8.68393 7.55871 9 6.79565 9 6C9 5.20435 8.68393 4.44129 8.12132 3.87868C7.55871 3.31607 6.79565 3 6 3ZM9.9 2.85C9.9 2.65109 9.82098 2.46032 9.68033 2.31967C9.53968 2.17902 9.34891 2.1 9.15 2.1C8.95109 2.1 8.76032 2.17902 8.61967 2.31967C8.47902 2.46032 8.4 2.65109 8.4 2.85C8.4 3.04891 8.47902 3.23968 8.61967 3.38033C8.76032 3.52098 8.95109 3.6 9.15 3.6C9.34891 3.6 9.53968 3.52098 9.68033 3.38033C9.82098 3.23968 9.9 3.04891 9.9 2.85ZM6 4.2C6.47739 4.2 6.93523 4.38964 7.27279 4.72721C7.61036 5.06477 7.8 5.52261 7.8 6C7.8 6.47739 7.61036 6.93523 7.27279 7.27279C6.93523 7.61036 6.47739 7.8 6 7.8C5.52261 7.8 5.06477 7.61036 4.72721 7.27279C4.38964 6.93523 4.2 6.47739 4.2 6C4.2 5.52261 4.38964 5.06477 4.72721 4.72721C5.06477 4.38964 5.52261 4.2 6 4.2Z" fill="#122659"/>
</symbol><symbol id="icon-logo" viewBox="0 0 143 23"><path d="M7.803 18.4c-2.433 0-4.32-.605-5.66-1.814C.82 15.376.115 13.672.026 11.474.01 11.014 0 10.264 0 9.226c0-1.057.009-1.823.026-2.3C.115 4.745.83 3.05 2.17 1.84 3.527.613 5.405 0 7.803 0c1.57 0 2.936.264 4.1.792 1.164.511 2.063 1.218 2.698 2.121.635.886.97 1.891 1.005 3.016v.051a.454.454 0 01-.185.358.573.573 0 01-.37.128h-2.513c-.212 0-.37-.043-.476-.128-.106-.085-.194-.247-.265-.486-.282-1.073-.75-1.823-1.402-2.249-.652-.443-1.525-.664-2.618-.664-2.54 0-3.862 1.371-3.968 4.114-.018.46-.027 1.167-.027 2.121 0 .955.01 1.679.027 2.173.106 2.743 1.428 4.114 3.968 4.114 1.093 0 1.966-.221 2.618-.664.67-.443 1.138-1.193 1.402-2.25.053-.238.132-.4.238-.485.123-.085.291-.128.503-.128h2.512c.16 0 .291.052.397.154a.41.41 0 01.159.383 5.472 5.472 0 01-1.005 3.041c-.635.886-1.534 1.593-2.698 2.121-1.164.511-2.53.767-4.1.767zm11.284-.256a.624.624 0 01-.45-.178.582.582 0 01-.185-.435V.613c0-.187.062-.332.185-.434a.623.623 0 01.45-.179h2.195c.194 0 .344.06.45.179a.532.532 0 01.185.434v16.918c0 .17-.062.315-.185.435-.106.119-.256.178-.45.178h-2.195zm12.263.256c-1.957 0-3.517-.545-4.681-1.636-1.146-1.107-1.755-2.657-1.825-4.65l-.027-.64.027-.638c.088-1.943.705-3.467 1.851-4.575C27.86 5.154 29.411 4.6 31.35 4.6c2.081 0 3.686.613 4.815 1.84 1.146 1.227 1.719 2.862 1.719 4.907v.536c0 .17-.062.316-.185.435a.657.657 0 01-.476.179H28.44v.204c.035.937.3 1.73.794 2.377.51.63 1.207.945 2.09.945 1.04 0 1.877-.391 2.512-1.175.159-.188.282-.307.37-.358.106-.051.256-.077.45-.077h2.275c.158 0 .29.051.396.154a.388.388 0 01.186.332c0 .409-.256.894-.768 1.457-.493.545-1.207 1.022-2.142 1.43-.935.41-2.02.614-3.253.614zm2.937-8.05v-.077c0-1.005-.265-1.814-.794-2.427-.511-.614-1.226-.92-2.143-.92-.916 0-1.63.306-2.142.92-.511.613-.767 1.422-.767 2.427v.077h5.846zm10.781 7.794c-.265 0-.468-.05-.609-.153a1.291 1.291 0 01-.344-.485L39.17 5.648l-.053-.23c0-.154.053-.281.159-.384a.592.592 0 01.423-.178h2.143c.335 0 .564.161.688.485l3.517 8.97 3.518-8.97c.053-.12.133-.23.238-.332a.682.682 0 01.45-.153h2.17c.14 0 .264.06.37.178a.48.48 0 01.184.384.752.752 0 01-.026.23l-4.973 11.858a1.29 1.29 0 01-.343.485c-.142.102-.344.153-.609.153h-1.957zm15.756.256c-1.958 0-3.518-.545-4.682-1.636-1.147-1.107-1.755-2.657-1.825-4.65l-.027-.64.027-.638c.088-1.943.705-3.467 1.851-4.575C57.332 5.154 58.884 4.6 60.824 4.6c2.08 0 3.685.613 4.814 1.84 1.146 1.227 1.719 2.862 1.719 4.907v.536c0 .17-.062.316-.185.435a.657.657 0 01-.476.179h-8.782v.204c.035.937.3 1.73.793 2.377.512.63 1.208.945 2.09.945 1.04 0 1.878-.391 2.513-1.175.159-.188.282-.307.37-.358.106-.051.256-.077.45-.077h2.275c.158 0 .29.051.396.154a.388.388 0 01.186.332c0 .409-.256.894-.767 1.457-.494.545-1.209 1.022-2.143 1.43-.935.41-2.02.614-3.253.614zm2.936-8.05v-.077c0-1.005-.265-1.814-.794-2.427-.511-.614-1.226-.92-2.142-.92-.917 0-1.632.306-2.143.92-.511.613-.767 1.422-.767 2.427v.077h5.846zm7.04 7.794a.623.623 0 01-.45-.178.582.582 0 01-.185-.435V5.494c0-.17.061-.315.185-.434a.584.584 0 01.45-.204h2.142a.66.66 0 01.476.178c.123.12.185.273.185.46v1.048A4.17 4.17 0 0175.19 5.29c.653-.29 1.393-.434 2.222-.434h1.084c.195 0 .344.06.45.178a.533.533 0 01.185.435v1.84c0 .17-.061.315-.185.434-.106.12-.255.18-.45.18h-2.063c-.828 0-1.48.23-1.957.69-.476.46-.714 1.09-.714 1.89v7.028c0 .17-.062.315-.185.435a.657.657 0 01-.476.178h-2.302zm11.347 0a.623.623 0 01-.45-.178.581.581 0 01-.185-.435V.894c0-.187.053-.34.158-.46a.657.657 0 01.477-.178h7.67c2.063 0 3.598.443 4.603 1.328 1.022.87 1.534 2.062 1.534 3.578 0 .886-.23 1.644-.688 2.275-.44.613-.96 1.056-1.56 1.329.74.323 1.357.851 1.851 1.584.511.733.767 1.567.767 2.504 0 1.585-.555 2.863-1.666 3.834-1.094.97-2.636 1.456-4.63 1.456h-7.882zM89.34 7.59c.917 0 1.614-.213 2.09-.639.476-.426.714-.997.714-1.712 0-.733-.238-1.295-.714-1.687-.476-.409-1.173-.613-2.09-.613h-4.153V7.59h4.153zm.265 7.846c.917 0 1.63-.239 2.142-.716.511-.494.767-1.116.767-1.866 0-.766-.255-1.388-.767-1.865-.511-.494-1.225-.741-2.142-.741h-4.418v5.188h4.418zm13.717 2.964c-.9 0-1.729-.17-2.487-.511-.74-.358-1.331-.835-1.772-1.431a3.326 3.326 0 01-.635-1.968c0-1.159.485-2.096 1.455-2.811.97-.716 2.301-1.201 3.994-1.457l3.624-.51v-.538c0-.75-.194-1.311-.582-1.686-.388-.375-1.014-.562-1.878-.562-.582 0-1.058.11-1.428.332a4.394 4.394 0 00-.847.613 20.55 20.55 0 01-.423.435c-.071.204-.203.306-.397.306h-2.037a.645.645 0 01-.423-.153.542.542 0 01-.159-.409c.018-.426.23-.911.635-1.457.424-.545 1.067-1.013 1.931-1.405.864-.392 1.922-.588 3.174-.588 2.081 0 3.598.451 4.55 1.354s1.428 2.087 1.428 3.553v8.024c0 .17-.062.315-.185.435-.106.119-.256.178-.45.178h-2.142a.626.626 0 01-.45-.178.583.583 0 01-.185-.435v-.997c-.388.546-.943.997-1.666 1.355-.706.34-1.587.511-2.645.511zm.899-2.428c.97 0 1.763-.306 2.38-.92.618-.613.926-1.508.926-2.683v-.537l-2.645.41c-1.023.152-1.798.4-2.327.74-.512.341-.768.758-.768 1.252 0 .546.239.972.715 1.278.476.307 1.049.46 1.719.46zm17.835 2.428c-1.816 0-3.227-.605-4.232-1.814v.945a.58.58 0 01-.185.435c-.106.119-.256.178-.45.178H115.1a.624.624 0 01-.45-.178.583.583 0 01-.185-.435V.613c0-.187.062-.332.185-.434A.624.624 0 01115.1 0h2.248c.194 0 .344.06.45.179a.534.534 0 01.185.434v5.674c1.005-1.125 2.363-1.687 4.073-1.687 1.781 0 3.148.562 4.1 1.687.952 1.124 1.464 2.58 1.534 4.37.018.204.027.477.027.817 0 .358-.009.64-.027.844-.07 1.84-.582 3.314-1.534 4.42-.952 1.108-2.319 1.662-4.1 1.662zm-.978-2.734c1.904 0 2.918-1.133 3.042-3.4.017-.17.026-.425.026-.766 0-.34-.009-.596-.026-.767-.124-2.266-1.138-3.399-3.042-3.399-.988 0-1.746.307-2.275.92-.511.597-.785 1.32-.82 2.173l-.026.97.026.997c.053.92.326 1.696.82 2.326.494.63 1.252.946 2.275.946zm11.5 7.334a.516.516 0 01-.37-.153.482.482 0 01-.159-.358c0-.153.036-.29.106-.409l2.063-4.728-5.078-11.576a.934.934 0 01-.106-.358.614.614 0 01.185-.384.509.509 0 01.397-.178h2.142c.335 0 .574.161.715.485l3.518 8.357 3.623-8.357c.141-.324.379-.485.714-.485h2.117c.141 0 .264.05.37.153a.455.455 0 01.185.358.996.996 0 01-.106.409l-7.485 16.738c-.159.324-.406.486-.741.486h-2.09z" fill="#122659"/></symbol><symbol id="icon-phone" viewBox="0 0 15 15"><path d="M11.404 9.923c-.49-.484-1.102-.484-1.589 0-.371.368-.743.736-1.108 1.111-.1.103-.184.125-.306.056-.24-.13-.496-.237-.727-.38-1.077-.678-1.98-1.549-2.778-2.529-.397-.487-.75-1.008-.996-1.595-.05-.119-.04-.197.056-.293.372-.36.734-.728 1.1-1.096.508-.512.508-1.111-.004-1.626-.29-.294-.58-.58-.87-.874-.3-.3-.597-.603-.9-.9-.49-.477-1.102-.477-1.589.004C1.32 2.169.96 2.547.58 2.909a1.81 1.81 0 00-.568 1.22c-.06.778.131 1.511.4 2.226.549 1.48 1.385 2.794 2.4 3.998a14.854 14.854 0 004.92 3.85c.86.417 1.753.739 2.724.792.668.038 1.249-.131 1.714-.652.318-.356.677-.68 1.014-1.021.5-.506.503-1.117.006-1.617-.593-.596-1.189-1.19-1.785-1.782zm-.597-2.488l1.152-.197A5.147 5.147 0 0010.52 4.46a5.12 5.12 0 00-2.934-1.463l-.162 1.158a3.972 3.972 0 012.272 1.133c.587.586.971 1.33 1.111 2.147zm1.802-5.007A8.493 8.493 0 007.739 0l-.162 1.158a7.364 7.364 0 014.208 2.098 7.359 7.359 0 012.063 3.98L15 7.038a8.555 8.555 0 00-2.391-4.61z" fill="#122659"/></symbol><symbol id="icon-vk" viewBox="0 0 14 8">
<path fill-rule="evenodd" clip-rule="evenodd" d="M6.84965 7.96651H7.68648C7.68648 7.96651 7.93926 7.93871 8.06831 7.79936C8.1871 7.67143 8.1833 7.43117 8.1833 7.43117C8.1833 7.43117 8.16695 6.30644 8.6881 6.14082C9.20183 5.97767 9.86152 7.22785 10.5608 7.70855C11.0895 8.07236 11.4913 7.99259 11.4913 7.99259L13.3609 7.96651C13.3609 7.96651 14.339 7.90616 13.8752 7.1359C13.8372 7.07289 13.6051 6.56611 12.4851 5.52477C11.3128 4.43487 11.4698 4.61116 12.882 2.72588C13.742 1.57774 14.0858 0.876778 13.9784 0.576558C13.876 0.290616 13.2434 0.366194 13.2434 0.366194L11.1383 0.37933C11.1383 0.37933 10.9823 0.358008 10.8666 0.427304C10.7535 0.495268 10.6807 0.65366 10.6807 0.65366C10.6807 0.65366 10.3475 1.54214 9.90315 2.29773C8.96577 3.89212 8.59098 3.97626 8.43779 3.87727C8.08143 3.64653 8.17037 2.95034 8.17037 2.45574C8.17037 0.910665 8.40434 0.266439 7.7148 0.0996707C7.48597 0.0442718 7.31758 0.00771992 6.73238 0.00181831C5.98127 -0.00598703 5.34552 0.00410255 4.98554 0.18077C4.74607 0.298231 4.56133 0.559995 4.67385 0.575035C4.81297 0.593692 5.12809 0.660132 5.29515 0.88801C5.51087 1.18195 5.50327 1.84217 5.50327 1.84217C5.50327 1.84217 5.62719 3.661 5.21381 3.88698C4.93005 4.04194 4.5408 3.72554 3.70511 2.27908C3.27691 1.53814 2.95362 0.719148 2.95362 0.719148C2.95362 0.719148 2.89128 0.566087 2.78009 0.484226C2.64515 0.385041 2.45661 0.35344 2.45661 0.35344L0.456232 0.366575C0.456232 0.366575 0.155938 0.374952 0.0457033 0.505739C-0.0523675 0.622058 0.0379107 0.862691 0.0379107 0.862691C0.0379107 0.862691 1.604 4.53273 3.37726 6.38221C5.00322 8.07788 6.84965 7.96651 6.84965 7.96651Z" fill="#122659"/>
</symbol></svg>